<svg viewBox="0 0 81 66" fill="#fff" fill-rule="evenodd" stroke="#000" stroke-linecap="round" stroke-linejoin="round" version="1.1" xmlns="http://www.w3.org/2000/svg">
  <path d="M 39.869141 0.50390625 C 31.369473 0.62829034 22.949859 4.1987812 16.880859 11.074219 C 13.706859 14.666219 11.407437 18.945219 10.148438 23.574219 C 10.302958 23.510851 10.462691 23.465977 10.623047 23.423828 C 4.4853142 27.49527 0.45432614 34.481 0.5 42.398438 A 22.58 22.58 0 0 0 9.3222656 60.171875 L 9.34375 60.150391 L 9.3203125 60.244141 C 13.243313 63.212141 18.036984 64.80525 22.958984 64.78125 L 22.960938 64.78125 L 40.248047 64.78125 L 40.359375 64.892578 L 57.732422 64.892578 C 70.208422 64.988578 80.404 54.952562 80.5 42.476562 A 22.6 22.6 0 0 0 70.564453 23.576172 L 70.564453 23.574219 A 31.3 31.3 0 0 0 61.123047 8.3515625 L 60.976562 8.4980469 L 60.996094 8.3222656 C 54.93 2.9672656 47.368847 0.39415558 39.869141 0.50390625 z M 39.083984 14.416016 A 17.35 17.35 0 0 1 51.3125 18.228516 L 51.507812 18.228516 A 17.35 17.35 0 0 1 57.732422 31.871094 L 57.732422 33.605469 A 8.69 8.69 0 0 1 66.419922 42.292969 A 8.69 8.69 0 0 1 57.732422 50.980469 L 40.359375 50.980469 L 40.333984 51.005859 L 40.333984 50.875 L 22.960938 50.875 A 8.65 8.65 0 0 1 19.394531 50.099609 L 19.396484 50.097656 A 8.69 8.69 0 0 1 15.056641 38.605469 A 8.69 8.69 0 0 1 26.548828 34.263672 C 28.474828 35.132672 30.014672 36.679469 30.888672 38.605469 L 40.962891 28.529297 A 22.54 22.54 0 0 0 27.318359 20.126953 C 27.409384 20.063025 27.497407 20.020969 27.570312 20.035156 A 17.35 17.35 0 0 1 39.083984 14.416016 z" fill-rule="nonzero" stroke="none" />
</svg>
