<svg height="549.601" viewBox="-2.138 -2.29 76.275 78.99" width="522.47" version="1.1" xmlns="http://www.w3.org/2000/svg">
  <path d="M-1.599-2.863C-3.025-.826-1.396 6.913.641 14.45c2.037 7.536 6.52 12.018 7.537 24.442 1.018 12.221 1.222 13.851-2.24 20.98-3.464 7.127-4.482 13.646 7.535 13.85 12.017.204 18.536-.204 30.757 1.63 12.222 1.833 16.5 2.444 23.221 1.426 6.722-1.018 8.147-3.26 5.296-5.296-2.852-2.037-14.666-4.277-19.758-8.352-4.889-3.666-18.739-9.777-18.942-11.406-.61-5.5-.815-25.46.203-31.979 1.02-6.519 2.444-15.888 2.852-18.332.408-2.444 2.444-4.889-1.019-4.074-3.462.814-16.498 2.648-26.275 2.037C.031-1.234-.987-3.474-1.599-2.863z" fill="#fff" fill-opacity="1" />
  <path d="M.642-6.326S18.363-.012 38.325-4.289c0 0-7.74 36.46-4.277 55.2 0 0 3.462 4.887 29.127 14.257 0 0 11.406 2.852 11 8.555 0 0 .406 1.223-13.444.814-13.85-.407-26.887-2.852-36.053-2.852-9.166 0-18.943.408-20.572-2.24-1.833-2.444.407-8.759 3.055-12.425 2.853-3.87 2.037-6.722 1.834-13.647C8.382 25.45-5.469 6.71.642-6.326z" fill="none" />
  <path d="M.642-6.326s17.721 6.11 37.683 1.833c0 0-7.74 36.664-4.277 55.403 0 0 3.462 4.888 29.127 14.258 0 0 11.406 2.852 11 8.555 0 0 .406 1.223-13.444.814-13.85-.407-27.09-4.277-36.053-2.852-9.573 1.63-18.943 1.02-20.572-2.24-1.426-2.647.407-8.759 3.055-12.425 2.853-3.87 2.037-6.722 1.834-13.647C8.382 25.45-5.469 6.71.642-6.326z" fill="none" />
</svg>
