<svg height="24px" preserveAspectRatio="xMidYMid" width="24px" viewBox="-165.831 -227.122 201.982 282.234" version="1.1" xmlns="http://www.w3.org/2000/svg">
  <path d="M-104.462-227.122l36.282 107.06c-14.618 3.254-25.584 16.317-25.584 31.901 0 11.702 6.184 21.98 15.452 27.756-4.458 6.642-9.744 12.892-15.802 18.608-9.608 9.063-20.31 15.937-31.85 20.46-11.622-7.301-16.535-21.07-11.433-33.064l.4-.94.75-1.764c12.766-4.453 21.952-16.603 21.952-30.867 0-18.024-14.662-32.687-32.685-32.687-18.023 0-32.689 14.663-32.689 32.687 0 9.097 3.74 17.335 9.758 23.267a552.73 552.73 0 01-3.417 7.11c-5.503 11.3-11.74 24.11-14.099 38.335-4.684 28.25 2.872 50.833 21.277 63.588 11.168 7.74 22.51 10.784 33.924 10.784 21.49 0 43.23-10.797 64.492-21.36 15.313-7.604 31.148-15.47 46.79-19.327 5.82-1.435 11.808-2.299 18.148-3.213C9.777 9.398 22.777 7.523 34.293.854c13.349-7.732 22.486-20.702 25.07-35.582 2.218-12.775-.451-25.57-6.961-36.422a32.488 32.488 0 004.786-17.01c0-15.958-11.497-29.273-26.641-32.117l36.226-106.845z" fill="#fff" fill-opacity="1" />
</svg>
