<svg viewBox="0 0 512 512" width="24px" height="24px" version="1.1" xmlns="http://www.w3.org/2000/svg">
  <path transformOrigin="center center" d="M256 0a48 48 0 00-48 48 48 48 0 0096 0 48 48 0 00-48-48zM108.95 60.938A48.013 48.013 0 0075 142.9 48.013 48.013 0 00142.9 75a48.013 48.013 0 00-33.95-14.063zm286.59.591A48.013 48.013 0 00369.1 75a48.013 48.013 0 0067.9 67.9 48.013 48.013 0 00-41.46-81.37zM48 208a48 48 0 00-48 48 48 48 0 0096 0 48 48 0 00-48-48zm416 0a48 48 0 00-48 48 48 48 0 0096 0 48 48 0 00-48-48zm-52.895 146.512A48 48 0 00369.2 369.1h-.1A48.013 48.013 0 10437 437a48 48 0 00-25.895-82.488zm-309.666 1.117A48.013 48.013 0 0075 369.099 48.013 48.013 0 00142.9 437a48.013 48.013 0 00-41.46-81.371zM256 416a48 48 0 00-48 48 48 48 0 0096 0 48 48 0 00-48-48z">

    <animateTransform attributeName="transform" attributeType="XML" type="rotate" from="0 0 0" to="360 0 0" dur="2s" repeatCount="indefinite" />
  </path>
</svg>
