<svg height="653.581" viewBox=".5 -.2 468.064 653.581" width="468.064" version="1.1" xmlns="http://www.w3.org/2000/svg">
  <path d="M 347.69922,-0.2 C 331.99922,-0.2 330.50039,7.8e-4 326.40039,2.10078 C 321.60039,4.70078 318.1,9.10039 316.5,14.70039 C 315.9,17.00039 315.5,64.50117 315.5,149.00117 V 279.70039 L 347.30078,328.3 L 379,376.90156 L 379.30078,197.10078 C 379.50078,71.80078 379.3,16.20078 378.5,13.60078 C 377.1,8.80078 373.20039,4.2 368.40039,1.8 C 365.10039,0 362.49922,-0.2 347.69922,-0.2 Z M 34.5,13.8 C 17.2,13.8 15.6,14.00117 11.5,16.00117 C 9.1,17.30117 5.69961,20.00078 4.09961,22.10078 L 1,26.00117 L 0.69922,226.60078 L 0.5,427.10078 L 2.59961,431.60078 C 4.09961,434.50078 6.30078,437.00156 9.30078,438.90156 L 13.90039,441.8 H 31.19922 C 46.29922,441.8 49.10078,441.50156 52.30078,439.90156 C 56.50078,437.70156 58.49961,435.7 61.09961,430.8 C 62.89961,427.4 63.00078,421.60117 63.30078,277.50117 C 63.50078,195.20117 63.90078,127.80156 64.30078,127.90156 C 64.70078,127.90156 111.1,196.10117 167.5,279.50117 L 270,431.20039 L 351.80078,541.70039 C 392.839,597.14758 427.63834,643.86172 434.05469,652.1125 A 649.06506,649.06506 0 0 0 467.87109,631.77851 L 388.80078,512.00117 C 344.20078,444.50117 253.4,307 187,206.3 C 120.6,105.6 65.09961,22.00156 63.59961,20.40156 C 58.29961,14.60156 54.9,13.8 34.5,13.8 Z M 468.5,634.8 C 468.2,634.8 466.50078,635.80156 464.80078,636.90156 C 461.30078,639.10156 460.20078,640.60156 463.30078,638.90156 C 465.41484,637.65234 468.81829,635.1069 468.54883,634.82148 C 468.53787,634.81171 468.52109,634.80351 468.5,634.8 Z M 460.23047,639.84883 C 459.89941,639.86152 459.21289,640.33906 457.90039,641.40156 C 457.03555,642.07422 456.58707,642.44888 456.59766,642.53242 V 642.53437 L 456.59961,642.53633 V 642.53828 L 456.60156,642.54023 H 456.60352 V 642.54219 L 456.60547,642.54414 C 456.68423,642.58578 457.23516,642.33281 458.30078,641.8 C 459.50078,641.2 460.5,640.5 460.5,640.3 C 460.5,640 460.4291,639.84121 460.23047,639.84883 Z M 455.23047,642.84883 C 454.89941,642.86152 454.21289,643.33906 452.90039,644.40156 C 452.03555,645.07422 451.58707,645.44888 451.59766,645.53242 V 645.53437 L 451.59961,645.53633 V 645.53828 L 451.60156,645.54023 H 451.60352 V 645.54219 L 451.60547,645.54414 C 451.68423,645.58578 452.23516,645.33281 453.30078,644.8 C 454.50078,644.2 455.5,643.5 455.5,643.3 C 455.5,643 455.4291,642.84121 455.23047,642.84883 Z M 450.23047,645.84883 C 449.89941,645.86152 449.21289,646.33906 447.90039,647.40156 C 447.03555,648.07422 446.58707,648.44888 446.59766,648.53242 V 648.53437 L 446.59961,648.53633 V 648.53828 L 446.60156,648.54023 H 446.60352 V 648.54219 L 446.60547,648.54414 C 446.68423,648.58578 447.23516,648.33281 448.30078,647.8 C 449.50078,647.2 450.5,646.5 450.5,646.3 C 450.5,646 450.4291,645.84121 450.23047,645.84883 Z M 443.30469,649.89375 C 443.00293,649.90156 442.23828,650.33906 440.30078,651.40156 C 436.50078,653.40156 436.7,654.2 440.5,652.3 C 442.2,651.4 443.5,650.5 443.5,650.3 C 443.5,650.0375 443.48574,649.88906 443.30469,649.89375 Z" fill="#000" stroke-linecap="round" fill-opacity="1" />
</svg>
